REM DIRINDEX 1\2,1\3
REM DIRNAME cjc052,folder01,folder02
TITLE ""
FILE "Disk3Track35.mp3" MP3
  TRACK 01 AUDIO
    TITLE "2:cjc052_1360"
    INDEX 01 00:00:00
  TRACK 02 AUDIO
    TITLE "2:cjc052_1361"
    INDEX 01 00:02:43
  TRACK 03 AUDIO
    TITLE "2:cjc052_1362"
    INDEX 01 00:17:27
  TRACK 04 AUDIO
    TITLE "0:"
    INDEX 01 00:31:37
